#define 1504886573904_width 8
#define 1504886573904_height 40
static char 1504886573904_bits[] = {
  0xFF, 0x55, 0x00, 0xEE, 0xEE, 0x00, 0xBB, 0xBB, 0xEE, 0x0E, 0xEE, 0x66, 
  0x00, 0x6F, 0x27, 0xBE, 0xE5, 0x7F, 0xFE, 0xBA, 0x5F, 0xFE, 0x48, 0x52, 
  0x81, 0x20, 0x04, 0x89, 0x44, 0x80, 0x22, 0x00, 0x00, 0x44, 0x00, 0x20, 
  0x00, 0x04, 0x00, 0x00, };
