#define 1504838878975_width 8
#define 1504838878975_height 32
static char 1504838878975_bits[] = {
  0x80, 0x20, 0x31, 0x47, 0x6F, 0xCF, 0xFE, 0xFE, 0x20, 0x21, 0x04, 0x8E, 
  0xE7, 0xFE, 0xFE, 0x7F, 0x01, 0x04, 0x8C, 0xE2, 0xF6, 0xF7, 0x7F, 0x7F, 
  0x04, 0x84, 0x20, 0x71, 0xE7, 0x6F, 0x7F, 0xFE, };
