#define 1504890080894_width 8
#define 1504890080894_height 32
static char 1504890080894_bits[] = {
  0x00, 0x00, 0x00, 0x5C, 0xB0, 0x62, 0x00, 0x00, 0x00, 0x00, 0x00, 0x74, 
  0x98, 0x61, 0x00, 0x00, 0x00, 0x00, 0x00, 0x70, 0xBE, 0x58, 0x00, 0x00, 
  0x00, 0x00, 0x00, 0x70, 0x99, 0x64, 0x00, 0x00, };
