#define 1505938942753_width 16
#define 1505938942753_height 96
static char 1505938942753_bits[] = {
  0x00, 0x00, 0x00, 0x00, 0x00, 0x00, 0x00, 0x00, 0x00, 0x00, 0x00, 0x00, 
  0xE0, 0x00, 0xF0, 0x01, 0xF0, 0x03, 0xF0, 0x07, 0xF0, 0x0F, 0xF8, 0x0F, 
  0xF8, 0x0F, 0xF8, 0x07, 0xF0, 0x07, 0xE0, 0x03, 0x00, 0x00, 0x00, 0x00, 
  0x00, 0x00, 0x10, 0x00, 0x70, 0x00, 0xF0, 0x05, 0xF8, 0x07, 0xF8, 0x07, 
  0xB8, 0x0F, 0xB8, 0x0F, 0x3C, 0x1F, 0x7C, 0x1F, 0xFC, 0x1F, 0xFC, 0x0F, 
  0xF8, 0x0F, 0xF0, 0x07, 0x80, 0x00, 0xC0, 0x00, 0xE0, 0x08, 0xF0, 0x08, 
  0xF8, 0x0F, 0x6C, 0x0E, 0x34, 0x0E, 0x3C, 0x1F, 0x9E, 0x1F, 0xBE, 0x1D, 
  0x3E, 0x1C, 0x3E, 0x1C, 0x1C, 0x14, 0xD0, 0x1C, 0xF0, 0x0F, 0xF8, 0x07, 
  0x40, 0x00, 0x60, 0x08, 0x20, 0x08, 0x00, 0x18, 0x00, 0x1C, 0x08, 0x1C, 
  0x8C, 0x0C, 0x9C, 0x01, 0x9E, 0x01, 0x3E, 0x00, 0x3E, 0x00, 0x1C, 0x30, 
  0x00, 0x18, 0x20, 0x10, 0x30, 0x03, 0x80, 0x01, 0x40, 0x00, 0x00, 0x00, 
  0x00, 0x08, 0x00, 0x18, 0x80, 0x00, 0x88, 0x01, 0x0C, 0x00, 0x1C, 0x00, 
  0x0C, 0x00, 0x00, 0x00, 0x00, 0x20, 0x00, 0x30, 0x00, 0x10, 0x00, 0x00, 
  0x10, 0x02, 0x00, 0x01, 0x00, 0x00, 0x00, 0x08, 0x00, 0x00, 0x80, 0x00, 
  0x08, 0x00, 0x00, 0x00, 0x00, 0x00, 0x00, 0x00, 0x00, 0x00, 0x00, 0x20, 
  0x00, 0x00, 0x00, 0x00, 0x00, 0x00, 0x00, 0x00, 0x08, 0x00, 0x00, 0x02, 
  };
