#define 1505317930606_width 24
#define 1505317930606_height 120
static char 1505317930606_bits[] = {
  0x00, 0x04, 0x00, 0x00, 0x0C, 0x00, 0x80, 0x0C, 0x00, 0x80, 0x04, 0x00, 
  0x80, 0x50, 0x00, 0x80, 0xB5, 0x00, 0x80, 0x3A, 0x05, 0x80, 0x11, 0x07, 
  0x80, 0x98, 0x01, 0x00, 0x60, 0x00, 0x00, 0x3E, 0x00, 0x00, 0x00, 0x00, 
  0x00, 0x44, 0x00, 0x00, 0x44, 0x00, 0x00, 0x66, 0x00, 0x00, 0x08, 0x00, 
  0x00, 0x18, 0x00, 0x00, 0x1A, 0x00, 0x00, 0x0A, 0x00, 0x00, 0x16, 0x00, 
  0x00, 0x36, 0x00, 0x00, 0x7A, 0x00, 0x00, 0x54, 0x00, 0x80, 0x41, 0x00, 
  0x00, 0x7E, 0x00, 0x00, 0x00, 0x00, 0x00, 0x10, 0x00, 0x00, 0x10, 0x00, 
  0x00, 0x30, 0x00, 0x00, 0x18, 0x00, 0x00, 0x04, 0x00, 0x00, 0x0C, 0x00, 
  0x40, 0x0C, 0x00, 0x40, 0x84, 0x00, 0x80, 0xD0, 0x00, 0x80, 0x88, 0x01, 
  0x00, 0xB5, 0x01, 0x00, 0x97, 0x01, 0x00, 0xBA, 0x01, 0x00, 0x90, 0x00, 
  0x00, 0x28, 0x00, 0x00, 0x24, 0x00, 0x00, 0x24, 0x00, 0x00, 0x44, 0x00, 
  0x00, 0x66, 0x00, 0x00, 0x08, 0x00, 0x00, 0x18, 0x00, 0x00, 0x18, 0x00, 
  0x00, 0x08, 0x00, 0x00, 0x00, 0x00, 0x00, 0x10, 0x00, 0x00, 0x78, 0x00, 
  0x00, 0x50, 0x00, 0x80, 0x79, 0x00, 0x00, 0x7E, 0x00, 0x00, 0x08, 0x00, 
  0x00, 0x14, 0x00, 0x00, 0x18, 0x00, 0x00, 0x30, 0x00, 0x00, 0x38, 0x00, 
  0x00, 0x04, 0x7E, 0x00, 0x8C, 0x03, 0x80, 0x0C, 0x01, 0x80, 0x04, 0x01, 
  0x80, 0x50, 0x01, 0x80, 0xB5, 0x01, 0x80, 0x3A, 0x01, 0x80, 0x11, 0x00, 
  0x80, 0x38, 0x00, 0x00, 0x10, 0x00, 0x00, 0x28, 0x00, 0x00, 0x24, 0x00, 
  0x00, 0x44, 0x00, 0x00, 0x44, 0x00, 0x00, 0x66, 0x00, 0x00, 0x1E, 0x00, 
  0xE0, 0xFF, 0x27, 0xF8, 0xFF, 0x00, 0xFE, 0x1F, 0x00, 0xFF, 0x0F, 0x00, 
  0xFF, 0x25, 0x00, 0x7F, 0x1A, 0x00, 0x3E, 0x09, 0x00, 0xD0, 0x1C, 0x00, 
  0x00, 0x08, 0x00, 0x00, 0x18, 0x00, 0x00, 0x24, 0x00, 0x00, 0x24, 0x00, 
  0x00, 0x44, 0x00, 0x00, 0x66, 0x00, 0x00, 0x01, 0x00, 0x00, 0x03, 0x00, 
  0x10, 0x33, 0x00, 0x04, 0x61, 0x00, 0x02, 0xEC, 0x00, 0x00, 0xD2, 0x00, 
  0x01, 0x94, 0x01, 0x03, 0x88, 0x01, 0x1F, 0x1C, 0x00, 0x7E, 0x68, 0x00, 
  0xF8, 0xD4, 0x00, 0xE0, 0xA2, 0x03, 0x80, 0xA4, 0x07, 0x00, 0xA4, 0x0F, 
  0x00, 0x66, 0x00, 0x00, 0x02, 0x00, 0x00, 0x06, 0x00, 0x00, 0x66, 0x00, 
  0x00, 0xC2, 0x00, 0x00, 0xD8, 0x01, 0x00, 0xA4, 0x01, 0x00, 0x5E, 0x03, 
  0x00, 0x49, 0x03, 0x00, 0x1C, 0x00, 0x00, 0x28, 0x00, 0x00, 0xC8, 0x00, 
  0x00, 0x24, 0x03, 0x00, 0x24, 0x0C, 0x00, 0x44, 0x00, 0x00, 0x66, 0x00, 
  };
