#define 1505317402988_width 16
#define 1505317402988_height 80
static char 1505317402988_bits[] = {
  0x00, 0x00, 0x00, 0x00, 0x80, 0x01, 0xC6, 0x63, 0xC9, 0x93, 0xD0, 0x0B, 
  0xD4, 0x2B, 0xAA, 0x55, 0xD1, 0x8B, 0xA0, 0x05, 0xD8, 0x1B, 0x24, 0x24, 
  0x52, 0x4A, 0x11, 0x88, 0x08, 0x10, 0x08, 0x10, 0x00, 0x00, 0x00, 0x00, 
  0x00, 0x00, 0x00, 0x00, 0x80, 0x00, 0x00, 0x01, 0x00, 0x1D, 0x00, 0x3D, 
  0x30, 0x3D, 0xE8, 0x3D, 0xFC, 0x1F, 0x52, 0x0F, 0xE8, 0x31, 0xA4, 0x48, 
  0x20, 0x11, 0x20, 0x11, 0x00, 0x00, 0x00, 0x00, 0x00, 0x00, 0x00, 0x00, 
  0x00, 0x00, 0x40, 0x00, 0x80, 0x1C, 0x80, 0x3E, 0xB0, 0x3E, 0xA8, 0x3E, 
  0xBC, 0x07, 0xE2, 0x3D, 0xB0, 0x42, 0x48, 0x04, 0x44, 0x08, 0x44, 0x08, 
  0x00, 0x00, 0x00, 0x00, 0x00, 0x00, 0x00, 0x00, 0x00, 0x00, 0x00, 0x20, 
  0x30, 0x18, 0x40, 0x24, 0xB8, 0x3A, 0x68, 0x3D, 0xFC, 0x1F, 0xA2, 0x0A, 
  0x90, 0x08, 0x90, 0x10, 0x88, 0x10, 0x88, 0x10, 0x00, 0x00, 0x00, 0x00, 
  0x00, 0x00, 0x00, 0x00, 0x00, 0x04, 0x00, 0x02, 0x00, 0x1A, 0x10, 0x3A, 
  0x68, 0x3D, 0x5C, 0x3D, 0xB2, 0x1E, 0xE0, 0x05, 0x60, 0x0A, 0x20, 0x12, 
  0x10, 0x24, 0x10, 0x24, };
