#define 1506371666345_width 8
#define 1506371666345_height 32
static char 1506371666345_bits[] = {
  0x00, 0x00, 0x00, 0x00, 0x00, 0x00, 0x00, 0x00, 0x00, 0x00, 0x00, 0x00, 
  0x01, 0x01, 0x07, 0x04, 0x00, 0x00, 0x00, 0x00, 0x00, 0x06, 0x0F, 0x0F, 
  0x16, 0x28, 0x50, 0xA0, 0x40, 0x40, 0xF0, 0x10, };
