#define 1506371654117_width 8
#define 1506371654117_height 32
static char 1506371654117_bits[] = {
  0x00, 0x00, 0x00, 0x00, 0x00, 0x00, 0x00, 0x00, 0x00, 0x00, 0x00, 0x00, 
  0x80, 0x80, 0xE0, 0x20, 0x00, 0x00, 0x00, 0x00, 0x00, 0x60, 0xF0, 0xF0, 
  0x68, 0x14, 0x0A, 0x05, 0x02, 0x02, 0x0F, 0x08, };
