#define 1505939352482_width 16
#define 1505939352482_height 32
static char 1505939352482_bits[] = {
  0x80, 0x00, 0x98, 0x01, 0xC8, 0x03, 0x98, 0x01, 0xB0, 0x0D, 0xF0, 0x1F, 
  0xE0, 0x07, 0x80, 0x01, 0x00, 0x00, 0x80, 0x07, 0xC0, 0x0F, 0xE0, 0x0F, 
  0xE0, 0x07, 0xF0, 0x0D, 0x70, 0x00, 0x98, 0x00, 0x80, 0x01, 0xD8, 0x03, 
  0x8C, 0x19, 0xB8, 0x11, 0xF0, 0x1F, 0xE0, 0x0F, 0x80, 0x01, 0x00, 0x00, 
  0xE0, 0x03, 0xF0, 0x07, 0xF0, 0x0F, 0xF0, 0x0F, 0x18, 0x06, 0x00, 0x0C, 
  0x00, 0x00, 0x00, 0x00, };
