#define 1505249868681_width 16
#define 1505249868681_height 144
static char 1505249868681_bits[] = {
  0x80, 0x00, 0x80, 0x01, 0xC4, 0x13, 0x88, 0x09, 0xB8, 0x0C, 0xF0, 0x07, 
  0xC0, 0x03, 0x80, 0x01, 0x00, 0x00, 0xC0, 0x01, 0xA0, 0x03, 0xE0, 0x02, 
  0xC0, 0x03, 0x70, 0x05, 0xC0, 0x06, 0x30, 0x02, 0x80, 0x00, 0x80, 0x01, 
  0xC4, 0x13, 0x88, 0x09, 0xA8, 0x04, 0xD0, 0x05, 0x40, 0x01, 0x80, 0x00, 
  0x00, 0x00, 0xC0, 0x00, 0x00, 0x03, 0xA0, 0x00, 0x40, 0x02, 0x10, 0x05, 
  0xC0, 0x02, 0x10, 0x02, 0x80, 0x00, 0x80, 0x01, 0xC4, 0x13, 0x80, 0x01, 
  0x20, 0x04, 0x90, 0x00, 0x40, 0x01, 0x80, 0x00, 0x00, 0x00, 0x40, 0x00, 
  0x00, 0x01, 0x20, 0x00, 0x40, 0x00, 0x00, 0x00, 0x00, 0x00, 0x00, 0x00, 
  0x00, 0x00, 0x80, 0x00, 0x80, 0x01, 0xC0, 0x03, 0x00, 0x00, 0x00, 0x00, 
  0x00, 0x00, 0x00, 0x00, 0x00, 0x00, 0x00, 0x00, 0x00, 0x00, 0x00, 0x00, 
  0x00, 0x00, 0x00, 0x00, 0x00, 0x00, 0x00, 0x00, 0x00, 0x00, 0x00, 0x00, 
  0x00, 0x00, 0x00, 0x00, 0x80, 0x00, 0x80, 0x01, 0xC0, 0x03, 0x00, 0x00, 
  0x00, 0x00, 0x00, 0x00, 0x00, 0x00, 0x00, 0x00, 0x00, 0x00, 0x00, 0x00, 
  0x00, 0x00, 0x00, 0x00, 0x00, 0x00, 0x00, 0x00, 0x00, 0x00, 0x00, 0x00, 
  0x00, 0x00, 0x00, 0x00, 0x00, 0x00, 0x00, 0x00, 0x80, 0x00, 0x80, 0x01, 
  0xC0, 0x03, 0x00, 0x00, 0x00, 0x00, 0x00, 0x00, 0x00, 0x00, 0x00, 0x00, 
  0x00, 0x00, 0x00, 0x00, 0x00, 0x00, 0x00, 0x00, 0x00, 0x00, 0x00, 0x00, 
  0x00, 0x00, 0x00, 0x00, 0x00, 0x00, 0x00, 0x00, 0x00, 0x00, 0x00, 0x00, 
  0x00, 0x00, 0x80, 0x00, 0x80, 0x01, 0xC0, 0x03, 0x00, 0x00, 0x00, 0x00, 
  0x00, 0x00, 0x00, 0x00, 0x00, 0x00, 0x00, 0x00, 0x00, 0x00, 0x00, 0x00, 
  0x00, 0x00, 0x00, 0x00, 0x00, 0x00, 0x00, 0x00, 0x80, 0x00, 0x80, 0x01, 
  0xC0, 0x03, 0x00, 0x00, 0x00, 0x00, 0x00, 0x00, 0x00, 0x00, 0x00, 0x00, 
  0x00, 0x00, 0x00, 0x00, 0x00, 0x00, 0x00, 0x00, 0x00, 0x00, 0x00, 0x00, 
  0x00, 0x00, 0x00, 0x00, 0x00, 0x00, 0x80, 0x00, 0x80, 0x01, 0xC0, 0x03, 
  };
