#define 1504830869429_width 16
#define 1504830869429_height 160
static char 1504830869429_bits[] = {
  0x00, 0x00, 0x80, 0x00, 0x88, 0x01, 0xC8, 0x03, 0x88, 0x01, 0x88, 0x01, 
  0xC8, 0x00, 0xE8, 0x01, 0x78, 0x03, 0xB8, 0x03, 0xC8, 0x01, 0xC8, 0x01, 
  0xC8, 0x01, 0xC8, 0x01, 0xE8, 0x01, 0xE8, 0x01, 0x00, 0x00, 0x00, 0x00, 
  0x00, 0x01, 0x00, 0x03, 0x80, 0x07, 0x00, 0x03, 0x80, 0x03, 0xC0, 0x01, 
  0xE0, 0x3B, 0xE0, 0x07, 0x58, 0x01, 0xA6, 0x00, 0xF0, 0x01, 0xF0, 0x01, 
  0xF0, 0x01, 0xF0, 0x00, 0x80, 0x00, 0x80, 0x01, 0xC0, 0x03, 0x80, 0x01, 
  0xF0, 0x11, 0xF8, 0x1D, 0xD8, 0x0F, 0xA8, 0x01, 0x1C, 0x00, 0xC3, 0x03, 
  0xE0, 0x07, 0xE0, 0x07, 0xF0, 0x03, 0xF8, 0x03, 0x18, 0x07, 0x00, 0x00, 
  0x00, 0x00, 0x00, 0x00, 0x00, 0x01, 0x00, 0x03, 0x80, 0x07, 0x00, 0x03, 
  0x80, 0x03, 0xE0, 0x18, 0xF0, 0x07, 0xD8, 0x07, 0xB0, 0x01, 0x0C, 0x00, 
  0xC0, 0x07, 0xF8, 0x0F, 0xE0, 0x0F, 0xC0, 0x1F, 0x00, 0x02, 0x00, 0x06, 
  0x00, 0x8F, 0x00, 0x46, 0x00, 0x27, 0x80, 0x1B, 0xC0, 0x17, 0xE0, 0x0F, 
  0x60, 0x02, 0x10, 0x01, 0xC0, 0x00, 0x60, 0x01, 0xF0, 0x03, 0xF0, 0x03, 
  0xE0, 0x01, 0xC0, 0x00, 0x00, 0x00, 0x00, 0x00, 0x00, 0x00, 0x00, 0x00, 
  0x10, 0x01, 0x10, 0x03, 0x90, 0x07, 0x08, 0x03, 0xC8, 0x01, 0xF8, 0x1B, 
  0xB8, 0x1D, 0xC4, 0x03, 0xC4, 0x07, 0xC4, 0x07, 0xC4, 0x03, 0xE0, 0x07, 
  0x00, 0x00, 0x00, 0x00, 0x00, 0x00, 0x00, 0x00, 0x00, 0x00, 0x20, 0x01, 
  0x20, 0x03, 0x90, 0x07, 0x10, 0x03, 0xC8, 0x01, 0xF0, 0x1B, 0xB8, 0x1D, 
  0xC4, 0x03, 0xE4, 0x07, 0xE2, 0x0F, 0xF0, 0x0F, 0x00, 0x00, 0x00, 0x00, 
  0x00, 0x00, 0x00, 0x00, 0x00, 0x00, 0x00, 0x00, 0x41, 0x00, 0xC1, 0x00, 
  0xE2, 0x01, 0xC2, 0x00, 0xF4, 0x03, 0xFC, 0x04, 0xEC, 0x01, 0xF8, 0x07, 
  0xF0, 0x1F, 0xF0, 0x7F, 0x00, 0x00, 0x80, 0x00, 0x80, 0x01, 0xC0, 0x03, 
  0x80, 0x01, 0x80, 0x01, 0xE0, 0x00, 0xF0, 0x01, 0xD8, 0x02, 0xFE, 0x3F, 
  0x18, 0x0C, 0xE0, 0x01, 0xE0, 0x03, 0xE0, 0x07, 0xF0, 0x07, 0xF8, 0x07, 
  0x00, 0x00, 0x80, 0x00, 0x80, 0x01, 0xC0, 0x03, 0x80, 0x01, 0x80, 0x01, 
  0xE0, 0x00, 0xF0, 0x01, 0xC0, 0x03, 0xF8, 0xF7, 0x00, 0x06, 0x7C, 0x00, 
  0x7E, 0x00, 0x3E, 0x00, 0x7F, 0x00, 0x7F, 0x00, };
