#define 1505940167309_width 16
#define 1505940167309_height 32
static char 1505940167309_bits[] = {
  0x00, 0x01, 0x80, 0x19, 0xC0, 0x13, 0x80, 0x19, 0xB0, 0x0D, 0xF8, 0x0F, 
  0xE0, 0x07, 0x80, 0x01, 0x00, 0x00, 0xE0, 0x01, 0xF0, 0x03, 0xF0, 0x07, 
  0xE0, 0x07, 0xB0, 0x0F, 0x00, 0x0E, 0x00, 0x19, 0x80, 0x01, 0xC0, 0x1B, 
  0x98, 0x31, 0x88, 0x1D, 0xF8, 0x0F, 0xF0, 0x07, 0x80, 0x01, 0x00, 0x00, 
  0xC0, 0x07, 0xE0, 0x0F, 0xF0, 0x0F, 0xF0, 0x0F, 0x60, 0x18, 0x30, 0x00, 
  0x00, 0x00, 0x00, 0x00, };
